<mxfile host="app.diagrams.net" modified="2021-11-03T00:16:51.227Z" agent="5.0 (Windows NT 10.0; Win64; x64) AppleWebKit/537.36 (KHTML, like Gecko) Chrome/95.0.4638.69 Safari/537.36" etag="J59gaUvbVVeh1a-c36KL" version="15.6.6" type="github">
  <diagram id="jctXK3OhTqGqfU_9osAC" name="第 1 页">
    <mxGraphModel dx="1102" dy="446" grid="1" gridSize="10" guides="1" tooltips="1" connect="1" arrows="1" fold="1" page="1" pageScale="1" pageWidth="827" pageHeight="1169" math="0" shadow="0">
      <root>
        <mxCell id="0" />
        <mxCell id="1" parent="0" />
        <mxCell id="753fbsJfgZnd5kV3GktF-3" style="edgeStyle=orthogonalEdgeStyle;rounded=0;orthogonalLoop=1;jettySize=auto;html=1;exitX=0;exitY=0.5;exitDx=0;exitDy=0;entryX=0.408;entryY=0;entryDx=0;entryDy=0;entryPerimeter=0;fontColor=default;strokeColor=default;labelBackgroundColor=default;" edge="1" parent="1" source="753fbsJfgZnd5kV3GktF-1" target="753fbsJfgZnd5kV3GktF-2">
          <mxGeometry relative="1" as="geometry" />
        </mxCell>
        <mxCell id="753fbsJfgZnd5kV3GktF-5" value="ffff" style="edgeLabel;html=1;align=center;verticalAlign=middle;resizable=0;points=[];fontColor=default;" vertex="1" connectable="0" parent="753fbsJfgZnd5kV3GktF-3">
          <mxGeometry x="0.0199" y="-1" relative="1" as="geometry">
            <mxPoint as="offset" />
          </mxGeometry>
        </mxCell>
        <mxCell id="753fbsJfgZnd5kV3GktF-4" style="edgeStyle=orthogonalEdgeStyle;rounded=0;orthogonalLoop=1;jettySize=auto;html=1;exitX=1;exitY=0.5;exitDx=0;exitDy=0;fontColor=default;" edge="1" parent="1" source="753fbsJfgZnd5kV3GktF-1">
          <mxGeometry relative="1" as="geometry">
            <mxPoint x="480" y="480" as="targetPoint" />
          </mxGeometry>
        </mxCell>
        <mxCell id="753fbsJfgZnd5kV3GktF-1" value="dubbo" style="rounded=0;whiteSpace=wrap;html=1;fillColor=default;strokeColor=default;fontColor=default;" vertex="1" parent="1">
          <mxGeometry x="220" y="370" width="120" height="60" as="geometry" />
        </mxCell>
        <mxCell id="753fbsJfgZnd5kV3GktF-2" value="" style="rounded=0;whiteSpace=wrap;html=1;fontColor=default;strokeColor=default;fillColor=default;" vertex="1" parent="1">
          <mxGeometry x="70" y="450" width="120" height="60" as="geometry" />
        </mxCell>
      </root>
    </mxGraphModel>
  </diagram>
</mxfile>
